<svg xmlns="http://www.w3.org/2000/svg" width="89" height="38" viewBox="0 0 88.95 38" role="img" aria-label="Email">
  <rect x="0.75" y="0.75" width="87.45" height="36.5" rx="18.25" fill="none" stroke="#000000" stroke-width="1.5" opacity="0.85"/>
  <path d="M91 0V700H564V568H238V132H571V0ZM161 293V421H516V293Z" transform="translate(20.000 23.500) scale(0.012500 -0.012500)" fill="#000000"/>
  <path d="M91 0V700H228L483 285L393 286L651 700H782V0H635V240Q635 330 639.5 402.0Q644 474 655 545L673 498L468 180H402L201 496L218 545Q229 478 233.5 407.5Q238 337 238 240V0Z" transform="translate(30.337 23.500) scale(0.012500 -0.012500)" fill="#000000"/>
  <path d="M7 0 282 700H416L689 0H535L394 377Q388 393 379.5 418.0Q371 443 362.0 471.0Q353 499 345.0 524.5Q337 550 333 567H360Q354 545 346.5 520.5Q339 496 331.0 470.5Q323 445 314.0 421.0Q305 397 297 374L156 0ZM135 147 184 267H505L555 147Z" transform="translate(43.650 23.500) scale(0.012500 -0.012500)" fill="#000000"/>
  <path d="M73 0V129H190V571H73V700H457V571H340V129H457V0Z" transform="translate(54.750 23.500) scale(0.012500 -0.012500)" fill="#000000"/>
  <path d="M91 0V700H241V135H558V0Z" transform="translate(63.775 23.500) scale(0.012500 -0.012500)" fill="#000000"/>
</svg>
